<?xml version="1.0" encoding="UTF-8" standalone="no"?>
<!DOCTYPE svg PUBLIC "-//W3C//DTD SVG 1.1//EN" "http://www.w3.org/Graphics/SVG/1.1/DTD/svg11.dtd">
<svg width="100%" height="100%" viewBox="0 0 961 540" version="1.1" xmlns="http://www.w3.org/2000/svg" xmlns:xlink="http://www.w3.org/1999/xlink" xml:space="preserve" xmlns:serif="http://www.serif.com/" style="fill-rule:evenodd;clip-rule:evenodd;stroke-linejoin:round;stroke-miterlimit:2;">
    <g id="Paths" transform="matrix(1,0,0,-1,0,540)">
        <path d="M0.02,142.08C15.65,140.34 30.36,131.01 42.72,120.93L72.28,96.82C79.77,90.71 87.77,86.1 96.59,82.21C108.2,77.08 120.76,76.57 132.78,80.84C143.13,84.51 152.33,89.91 160.84,96.92L196.32,126.15C213.94,140.67 236.88,149.47 258.71,139.74C267.04,136.03 274.54,131.47 281.66,125.72L314.55,99.17C335.89,81.95 360.2,72.68 385.4,87.25C392.56,91.39 399.09,95.44 405.54,100.78L438.09,127.66C445.75,133.99 453.98,138.87 463.18,142.4C476.77,147.62 491.11,146.91 504.03,140.39C510.93,136.91 517.22,133.28 523.25,128.36L554.4,102.95C562.48,96.36 570.93,91.08 580.3,86.63C593.51,80.36 607.88,80.28 621.36,86.03C630.8,90.06 639.11,95.46 647.09,102.01L679.44,128.59C686.8,134.64 694.57,139.37 703.19,143.27C715.78,148.97 729.4,149.19 742.11,143.82C751.1,140.02 759.13,135.24 766.77,129.09L801.29,101.29C809.21,94.91 817.65,89.97 827.16,86.4C877.26,67.62 913.57,141.27 957.83,148.15C958.49,148.25 959.19,148.15 959.49,148.6C959.7,148.92 959.6,150.21 959.21,150.16C944.53,148.08 930.53,139.11 919.04,129.88L888.21,105.08C869.05,89.66 847.12,79.63 823.41,90.83C814.61,94.99 806.74,100.15 799.17,106.36L766.77,132.92C759.95,138.51 752.86,142.93 744.93,146.65C731.49,152.95 716.69,153.76 703.01,147.76C695.07,144.28 687.78,140.21 680.99,134.76L645.62,106.35C638.46,100.6 631.06,96.04 622.8,92.21C608.81,85.72 593.89,86.31 579.98,93.07C569.85,98 560.8,104.34 552.09,111.65L528.1,131.78C520.25,138.37 512.09,143.95 502.86,148.25C478.61,159.55 457.06,151.1 437.11,135.35L396.41,103.19C389.86,98.02 382.52,94.48 374.73,91.81C363.25,87.88 351.59,88.69 340.53,93.49C331.63,97.35 323.82,102.41 316.21,108.54L277.99,139.31L263.72,148.53C240.2,162.36 214.74,153.75 194.62,137.47L160.97,110.24C152.87,103.69 144.22,98.7 134.57,94.89C122.7,90.2 110.16,90.58 98.42,95.63C87.8,100.19 78.45,106.33 69.58,113.78L42.74,136.34C30.91,146.25 15.12,155.87 0.01,157.33L0.01,142.08L0.02,142.08Z" style="fill:rgb(5,14,18);fill-rule:nonzero;"/>
        <path d="M0.02,175.2L0.02,159.84C14.83,158.68 29.72,149.39 41.49,139.87L75.42,112.42C84.19,105.32 94.09,100.34 104.99,97.36C115.89,94.38 126.77,95.71 136.89,100.22C146.39,104.45 154.84,109.84 162.85,116.5L194.79,143.04C203.3,150.11 212.36,155.57 222.8,159.24C233.24,162.91 244.71,163.17 255.48,159.02C264.68,155.48 272.97,150.66 280.7,144.43L315.75,116.23C323.09,110.33 330.85,105.74 339.44,102.01C352.01,96.54 365.49,96.61 378.21,101.74C388.39,105.85 397.31,111.7 405.74,118.8L433.56,142.27C442.35,149.69 451.66,155.74 462.24,160.12C474.6,165.25 487.61,165.45 499.95,160.21C509.84,156.01 518.55,150.36 526.88,143.53L555.86,119.77C570.71,107.6 591.24,96.64 610.55,100.61C621.1,102.78 630.29,107.68 638.96,113.93L665.04,134.87C688.77,153.93 711.47,175.46 743.67,161.14C753,156.99 761.36,151.67 769.36,145.12L796.77,122.69C803.9,116.85 811.25,112.07 819.3,107.75C853.83,89.19 881.32,114.27 906.86,135.84C920.92,147.71 938.73,162.65 956.73,166.23C958.11,166.5 959.92,165.86 959.58,168.22C939.72,165.33 924.22,152.03 909.05,139.9L884.25,120.06C877.04,114.3 869.17,110.04 860.53,106.9C849.41,102.85 838.14,103.2 827.12,107.49C816.96,111.45 808.05,117.09 799.58,124.05L769.85,148.48C761.51,155.33 752.85,161.04 743.03,165.29C718.11,176.07 696.71,165.53 676.8,149.5L644.4,123.41C637.44,117.8 630.08,113.41 621.95,109.88C609.8,104.6 596.92,104.37 584.6,109.17C576.13,112.47 568.45,116.66 561.38,122.42L535.5,143.53C512.86,161.99 489.82,180.52 459.33,166.78C449.85,162.51 441.42,156.86 433.18,150.31L397.12,121.65C391.2,116.94 384.65,113.65 377.7,110.86C364.68,105.63 351.02,106.47 338.38,112.46C328.24,117.26 319.38,123.62 310.7,130.79L285.99,151.19C269.24,165.02 247.8,178.06 225.9,171.83C215.57,168.89 205.94,164.27 197.57,157.54L164.59,131.04C156.19,124.29 147.59,118.58 137.81,114.13C113.64,103.12 92.15,113.88 72.88,129.52L40.82,155.53C29.08,165.09 14.89,173.83 0.02,175.2Z" style="fill:rgb(5,14,18);fill-rule:nonzero;"/>
        <path d="M0,408.96L0,394.08C10.46,392.8 20.36,388.82 29.32,382.5L71.19,349.67C89.85,335.04 110.31,324.23 133.85,333.17C141.96,336.25 149.43,340.32 156.25,345.82L195.8,377.7C213.84,392.24 235.22,401.62 257.7,392.15C265.87,388.7 273.13,384.17 280.12,378.61L314.55,351.21C334.98,334.95 357.51,325.24 382.39,337.54C390.46,341.53 397.7,346.33 404.71,352.14L435.91,378.01C453.25,392.39 475.01,403.35 497.29,395.2C506.29,391.91 514.38,387.46 521.86,381.39L554.93,354.53C575.95,337.46 600.42,326.34 626.01,340.04C633.48,344.04 640.24,348.36 646.82,353.78L677.31,378.9C685.68,385.8 694.46,391.68 704.42,395.85C716.12,400.76 728.63,401.04 740.42,396.48C750.08,392.74 758.68,387.6 766.74,381.08L799.36,354.72C807.23,348.36 815.42,343.23 824.75,339.3C849.11,329.03 871.05,340.3 890.12,356.11C902.4,366.29 914.26,376.35 927,385.87C937.13,393.44 947.73,398.17 960.21,401.55C947.66,402.55 927.92,389.22 918.2,381.28L891.54,359.51C883.76,353.15 875.77,347.87 866.83,343.43C841.78,330.99 819.2,342.01 798.9,358.59L765.12,386.17C756.76,392.99 747.56,398.12 737.3,401.46C725.56,405.28 713.2,404.36 702.02,399.32C693.36,395.42 685.68,390.59 678.29,384.64L645.89,358.55C638.75,352.8 631.4,348.17 623.14,344.35C600.7,333.97 580.89,342.2 562.08,355.9C542.24,370.36 527.82,386.66 505.47,398.98C480.48,412.75 456.06,402.69 435.15,385.94L398.19,356.34C392.91,352.11 387.22,349.19 381.26,346.34C355.41,334 332.66,346.68 312.18,363.63L286.71,384.71C266.24,401.65 243.69,414.54 217.49,403.08C210.63,400.08 204.28,396.66 198.35,391.97L159.54,361.3C151.81,355.19 143.71,350.34 134.63,346.85C122.31,342.13 109.79,342.68 97.79,347.88C85.97,353 76,360.24 66.19,368.62C54.5,378.6 43.18,388.44 30.55,397.19C21.25,403.63 11.01,408.2 0.03,408.97L0,408.96Z" style="fill:rgb(5,14,18);fill-rule:nonzero;"/>
        <path d="M0.02,391.2L0.02,375.84C10.45,375.05 19.94,370.68 28.93,364.88C50.25,351.13 65.88,333.02 90.17,319.21C103.12,311.85 117.56,309.95 131.8,314.64C143.59,318.52 153.51,325.35 163.19,333.1L203.41,365.29C213.11,372.44 224.45,376.97 236.52,377.73C252.86,378.75 268.68,370.03 281.2,359.99L315.51,332.47C335.17,316.7 357.95,307.66 381.82,319.36C390.03,323.38 397.37,328.25 404.5,334.1L439.01,362.4C446.84,368.82 455.22,373.62 464.76,376.98C476.07,380.96 487.92,380.78 499.08,376.41C506.93,373.34 514.03,369.62 520.61,364.3L555.89,335.84C564.24,329.1 573.02,323.63 582.83,319.62C596.74,313.95 611,314.82 624.32,321.5C633.04,325.87 640.91,330.93 648.51,337.19L677.18,360.76C696.12,376.33 718.84,388.22 742.68,377.64C753.76,372.72 763.32,365.97 772.73,358.35L800.03,336.22C807.51,330.16 815.4,325.32 824.21,321.54C846.24,312.09 865.66,320.07 884,333.44C901.76,346.39 916.38,361.65 935.28,373.3C943.04,378.09 950.95,380.91 960.13,383.46C949.27,384.83 930.04,372.77 921.25,365.7L885.94,337.27C869.13,323.73 847.49,315.02 826.63,323.49C818.65,326.73 811.36,330.61 804.64,336.09L768.46,365.56C748.67,381.68 725.66,392.79 701.12,381.01C691.55,376.42 683.1,370.8 674.83,364.1L644.64,339.63C637.5,333.85 629.91,329.42 621.58,325.73C608.42,319.89 594.47,320.3 581.38,326.36C571,331.17 561.75,337.48 552.94,344.9L528.97,365.06C508.51,382.27 485.42,394.54 459.2,382.97C450.45,379.11 442.68,374.2 435.22,368.1L402.76,341.57C394.02,334.43 384.55,328.96 373.79,325.46C354.1,319.06 333.89,328.04 318.37,340.7L280.37,371.68C262.12,386.56 241.84,394.61 218.91,385.77C210.47,382.51 202.9,378.14 195.8,372.4L160.25,343.71C151.83,336.91 142.8,331.76 132.58,328.2C121.94,324.5 110.75,324.64 100.25,328.86C89.48,333.19 79.92,339.16 70.99,346.59L39.05,373.17C28.59,381.88 13.27,390.15 -0.01,391.22L0.02,391.2Z" style="fill:rgb(5,14,18);fill-rule:nonzero;"/>
        <path d="M0.02,139.2L0.02,123.84C19.45,122.05 37.16,107.97 52.09,95.28C63.1,85.93 74.1,77.24 86.2,69.48C103.52,58.38 124.56,57.17 142.71,67.09C149.67,70.89 155.94,75.15 162.2,80.2L200.66,111.21C207.05,116.36 214.14,119.94 221.73,122.76C233.03,126.97 244.77,126.81 256.05,122.67C264.27,119.65 271.58,115.54 278.5,110.05L319.09,77.84C326.68,71.82 334.96,67.4 344.09,64.47C355.11,60.93 366.25,61.29 376.98,65.45C384.35,68.31 391.18,71.74 397.38,76.77L435.18,107.48C454.05,122.81 475.43,133.74 499.45,124.25C507.98,120.88 515.62,116.46 522.81,110.65L554.63,84.94C574.57,68.83 596.13,57.42 621.33,68.19C630.17,71.97 638.07,76.73 645.57,82.86L680.37,111.3C687.79,117.36 695.64,122.02 704.38,125.69C717.21,131.08 730.58,130.93 743.34,125.31C752.7,121.18 760.99,115.76 768.99,109.27L795.98,87.38C816.17,71.01 838.2,58.64 863.94,69.83C871.58,73.15 878.56,77.01 885.06,82.28L909.7,102.26C926.15,115.6 938.3,126.18 960.19,131.34C954.53,132.64 949.19,129.77 944.2,127.66C934.98,123.77 926.86,118.37 919.1,112.04L888.19,86.83C880.71,80.73 872.76,75.99 863.96,72.19C851.82,66.95 838.96,66.71 826.6,71.46C817.73,74.87 809.84,79.62 802.43,85.7L767.7,114.2C748.55,129.91 725.49,140.46 701.77,129.27C693.12,125.19 685.23,120.46 677.76,114.39L646.29,88.84C638.62,82.61 630.59,77.56 621.6,73.74C607.12,67.59 591.9,68.37 578.07,75.8C568.24,81.08 559.37,87.3 550.79,94.55L525.84,115.64C518.6,121.76 510.91,126.56 502.36,130.57C477.86,142.07 454.42,131.94 434.67,115.69L404.94,91.23C396.97,84.68 388.56,79.39 379.12,75.32C367.15,70.16 354.42,69.91 342.25,74.64C332.86,78.29 324.58,83.46 316.72,89.9L278.54,121.18C259.18,137.05 235.43,143.08 212.51,131.01C204.64,126.87 197.71,121.97 190.69,116.39L156.24,88.98C149.16,83.35 141.48,79.19 132.96,76.26C120.89,72.1 108.32,72.75 96.71,78.13C86.42,82.9 77.28,89.14 68.59,96.48L43.63,117.56C31.52,127.82 15.6,137.83 0.02,139.2Z" style="fill:rgb(5,14,18);fill-rule:nonzero;"/>
        <path d="M0.02,427.2L0.02,411.84C13.39,410.78 28.4,402.43 39.09,393.79L75.13,364.62C83.53,357.82 92.8,353.04 103.09,349.86C115.05,346.16 127.32,347.56 138.54,352.93C148.51,357.7 157.3,363.68 165.78,370.8L193.4,394.03C201.94,401.21 211.25,406.82 221.62,410.91C232.51,415.21 244.14,415.24 255.1,411.13C264.6,407.57 273.06,402.59 280.98,396.21L314.96,368.83C334.65,352.97 357.54,343.39 381.58,355.09C391.29,359.82 399.83,365.73 408.11,372.7L435.7,395.95C443.8,402.78 452.47,408.06 462.21,412.17C473.38,416.88 485.33,417.51 496.82,413.38C506.02,410.07 514.34,405.43 521.98,399.24L555.62,371.99C563.66,365.48 572.02,360.16 581.44,356.07C594.71,350.31 608.72,350.29 621.96,356.1C630.61,359.9 638.22,364.8 645.59,370.84L680.39,399.3C687.2,404.87 694.24,409.33 702.2,413.03C715.38,419.16 730.04,419.16 743.4,413.35C753.67,408.88 762.73,402.93 771.34,395.75L795.39,375.69C803.63,368.82 812.28,363.13 821.85,358.55C837.48,351.09 854.22,351.77 869.38,360.1C891.23,372.1 908.77,391.08 929.95,405.95C939.26,412.49 948.78,416.68 960.16,419.31C946.73,420.65 926.45,405.99 915.96,397.44L892.18,378.04C884.17,371.5 875.93,365.8 866.69,361.36C853.64,355.09 839.8,354.31 826.4,359.7C816.72,363.6 808.21,368.94 800.09,375.6L767.42,402.38C759.87,408.57 751.86,413.36 742.96,417.31C721.02,427.06 698.88,418.94 680.86,404.55L643.84,374.98C626.93,361.47 606.76,352.98 585.66,360.78C576.24,364.26 567.77,368.99 559.93,375.37L523.47,405.04C504.37,420.58 482.2,429.47 458.7,418.43C448.17,413.48 438.66,407.09 429.65,399.6L407.38,381.08C398.74,373.89 389.62,368.09 379.36,363.54C369,358.94 358.21,358.13 347.23,361.29C337.27,364.16 328.23,368.84 320.1,375.44L283.59,405.06C275.56,411.58 267.19,416.94 257.8,420.98C243.65,427.07 228.73,426.75 215.05,419.9C205.05,414.89 196.23,408.88 187.57,401.77L165.45,383.6C156.88,376.56 147.86,370.74 137.81,366.15C114.97,355.71 93.13,364.93 74.67,379.97L45.34,403.87C32.16,414.61 16.73,425.36 0,427.18L0.02,427.2Z" style="fill:rgb(5,14,18);fill-rule:nonzero;"/>
        <path d="M0,372.96L0,358.08C10.91,356.7 21.49,352.76 30.52,345.73L73.85,312.01C93.84,296.45 115.48,288.04 139.58,299.6C146.37,302.86 152.55,306.63 158.48,311.44L198.43,343.83C205.49,349.56 213.06,353.73 221.58,356.74C232.28,360.52 243.26,360.9 254.12,357.33C262.88,354.45 270.78,350.15 278.07,344.35L316.49,313.78C323.05,308.56 329.8,304.5 337.32,300.99C352.3,294.01 368.4,294.61 383.14,302.22C393,307.3 401.91,313.64 410.49,320.85L434.48,340.99C453.47,356.94 477.44,368.39 501.38,357.55C510.31,353.51 518.24,348.42 525.87,342.24L556.08,317.79C563.36,311.9 570.88,307.09 579.3,303.09C593.03,296.57 608.18,296.53 622.12,302.61C631.97,306.9 640.59,312.62 648.9,319.49L676.72,342.48C684.94,349.27 693.6,354.81 703.24,359.11C717.09,365.28 731.53,365.1 745.2,358.55C753.85,354.41 761.58,349.27 769.13,343.17L797.75,320.02C832.52,291.9 857.63,293.33 891.98,321.59L916.2,341.52C928.79,351.88 943.5,362.33 959.52,364.51C959.62,365.35 959.52,365.92 959.32,366.1C959.18,366.22 958.63,366.12 958.33,366.07C941.44,363.25 925.68,351.68 912.58,340.8C888.41,320.74 860.72,292.95 827.83,304.94C819.46,307.99 811.98,312.04 805.03,317.7L766.74,348.89C759.44,354.84 751.83,359.54 743.31,363.42C730.55,369.24 716.57,369.42 703.67,364.04C695.04,360.45 687.44,355.96 680.14,350.08L644.59,321.44C637.09,315.4 629.21,310.77 620.36,307.24C605.34,301.24 589.54,302.66 575.56,310.96C562.76,318.56 551.33,327.82 540.03,337.68C529.2,347.13 518.43,356.07 505.79,362.86C481.02,376.17 456.79,367.72 436.14,350.81L403.48,324.05C395.68,317.66 387.33,312.53 378.01,308.77C355.32,299.62 334.82,309.05 316.91,323.74L282.38,352.06C275.7,357.54 269.06,362.31 261.33,365.99C244.46,374.01 225.93,372.99 209.8,363.58C186.2,349.82 170.06,330.29 145.31,315.55C127.13,304.73 106.08,305 88.19,316.38C75.3,324.58 63.74,334.31 52.08,344.38C37.07,357.34 19.89,371.44 -0.01,372.94L0,372.96Z" style="fill:rgb(5,14,18);fill-rule:nonzero;"/>
        <path d="M0,192.96L0,178.08C15.85,176.23 30.23,167.15 42.73,156.97L74.43,131.14C81.52,125.36 89.16,121.18 97.54,117.74C110.83,112.28 125.09,112.49 138.06,118.69C147.52,123.21 156.06,128.59 164.08,135.41L189.72,157.21C197.62,163.93 205.94,169.3 215.04,174.17C227.93,181.06 242.2,182.07 255.99,176.81C265.59,173.14 274.2,167.92 282.26,161.38L314.27,135.41C322.05,129.1 330.09,124 339.27,120.07C351.23,114.95 364.01,114.41 376.24,119.06C384.24,122.1 391.72,125.92 398.41,131.41L434.71,161.23C442.74,167.83 451.11,173.31 460.54,177.63C471.15,182.49 482.85,183.71 494.01,180.26C502.79,177.55 510.99,173.7 518.2,167.97L557.99,136.35C573.6,123.95 593.16,113.95 613.09,119.19C622.48,121.65 631.26,125.73 638.81,131.83L679.38,164.61C698.68,180.2 719.01,189.74 743.21,179.47C752.01,175.73 759.94,170.92 767.41,164.8L796.93,140.64C804.7,134.28 812.7,128.93 821.67,124.64C849.92,111.14 872.22,125.44 893.87,143.08L926.09,169.34C936.48,177.13 947.32,182.33 960.06,185.35C950.86,185.98 943.16,181.1 935.42,177.29C914.94,164.72 899.56,148.35 879.3,134.64C864.76,124.8 848.94,118.86 831.59,123.99C820.58,127.25 811.06,132.9 802.18,140.12L769.13,167.01C761.79,172.99 754.24,177.94 745.8,182.1C732.68,188.56 718.22,189.3 704.51,184.14C696.34,181.06 688.97,177 682.08,171.51L645.33,142.16C628.22,128.49 607.19,118.46 585.77,126.76C577.01,130.15 568.76,134.33 561.44,140.29L529.7,166.12C521.43,172.85 513.13,178.93 503.65,183.67C488.12,191.42 470.46,191.2 455.32,182.89C446.66,178.14 438.79,173.01 431.12,166.76L404.7,145.21C386.82,130.62 366.14,120.1 343.32,128.54C333.6,132.13 324.97,137.26 316.91,143.85L282.1,172.31C274.62,178.42 266.68,183.15 257.87,186.97C243.26,193.3 227.28,192.54 213.28,185.07C204.87,180.58 197.18,175.71 189.77,169.65L162.61,147.44C154.33,140.67 145.42,135.38 135.57,131.3C124.17,126.57 112.03,126.51 100.52,130.91C90.83,134.61 82.13,139.63 74.07,146.23L39.79,174.27C31.13,181.35 21.77,187.05 11.19,190.69L0,192.96Z" style="fill:rgb(5,14,18);fill-rule:nonzero;"/>
        <path d="M0,444.96L0,430.08C13.91,428.67 28.96,420.08 40.04,411.07L72.3,384.84C81.24,377.57 90.88,371.85 101.77,368.29C114.56,364.11 127.49,365.3 139.34,371.32C148.68,376.06 157.05,381.54 165.08,388.32L189.27,408.74C197.49,415.68 206.05,421.69 215.55,426.54C228.38,433.09 242.22,434.1 255.61,429C264.74,425.52 272.76,421 280.37,414.85L306.11,394.04C328.01,376.33 349.87,359.71 379.07,372.11C389.24,376.43 398.18,382.35 406.65,389.56L432.56,411.61C440.8,418.62 449.5,424.36 459.18,429.14C472.59,435.75 487.49,435.87 501.12,429.74C509.84,425.81 517.69,421.01 525.16,414.91L556.81,389.06C564.39,382.87 572.41,378.08 581.33,374.19C605.54,363.61 627.26,373.71 646.57,389.62L681.26,418.21C688.63,424.28 696.54,428.94 705.44,432.41C729.57,441.83 751.23,430.25 770.16,414.75L799.41,390.79C807.25,384.37 815.42,379.21 824.75,375.35C837.7,370 851.54,370.06 864.34,375.76C873.3,379.75 881.28,384.76 888.87,391.03L916.96,414.24C923.92,419.99 930.89,425.04 938.67,429.5C945.44,433.37 952.29,435.19 960.07,437.47C944.1,437.43 926.95,424.1 914.57,414.22L885.01,390.6C878.07,385.06 870.65,380.9 862.47,377.64C849.64,372.52 836.39,373.07 823.83,378.8C814.14,383.22 805.56,389.02 797.27,395.86L768.91,419.26C760.66,426.06 752,431.65 742.15,435.66C729.23,440.91 715.67,440.86 702.86,435.49C694.39,431.94 686.88,427.49 679.68,421.7L644.61,393.51C637.05,387.43 629,382.67 620.06,379.2C607.56,374.35 594.53,374.61 582.37,380.07C574.03,383.81 566.43,388.13 559.27,393.95L522.29,424.06C515.2,429.83 507.61,434.07 499.24,437.5C474.84,447.5 453.38,436.3 433.95,420.8L398.75,392.73C391.47,386.93 383.42,382.81 374.69,379.84C365.25,376.63 355.84,376.72 346.31,379.6C336.53,382.56 327.58,387.18 319.6,393.72L284.56,422.43C276.71,428.86 268.51,434.24 259.28,438.38C243.82,445.33 226.48,444.44 211.77,436.24C202.54,431.1 194.37,425.26 186.17,418.62L160.47,397.82C153.25,391.97 145.5,387.46 137.03,383.83C124.4,378.42 111.07,378.28 98.43,383.64C88.86,387.7 80.33,393.02 72.26,399.66L41.99,424.55C30.06,434.36 15.14,443.34 0.04,444.99L0,444.96Z" style="fill:rgb(5,14,18);fill-rule:nonzero;"/>
        <path d="M0.02,106.08C9.66,104.86 18.91,101.5 27.28,95.81L69.53,63.34C78.02,56.81 86.27,50.8 96.04,46.67C111.54,40.12 128.12,40.98 142.73,49.23C150.56,53.66 157.6,58.56 164.62,64.31L196.74,90.65C204.09,96.68 212.04,101.17 220.88,104.45C234.35,109.45 248.48,108.9 261.38,102.55C270.31,98.15 278.22,92.7 286,86.41L315.44,62.61C331.45,49.66 352.4,39.77 372.75,46.15C385.25,50.07 395.72,56.77 405.68,65.06L435.26,89.66C443.58,96.58 452.43,102.18 462.44,106.11C486.58,115.59 506.76,105.61 525.89,90.22L554.85,66.92C574.75,50.91 596.19,39.6 621.46,50.35C630.52,54.21 638.6,59.09 646.25,65.39L677.28,90.92C684.7,97.02 692.34,101.95 700.91,106.18C714.26,112.77 729.1,113.57 742.84,107.53C752.32,103.36 760.84,98.01 768.94,91.46L801.56,65.11C808.93,59.16 816.8,54.63 825.55,51.18C837.45,46.5 849.63,46.56 861.63,51.03C871.74,54.8 880.7,60.32 889.1,67.23L919.6,92.31C929.73,100.64 945.45,110.69 958.2,112.28C959.02,112.38 959.43,112.34 959.55,113.04C959.67,113.74 959.5,114.18 958.88,114.13L957.42,114.01C945.82,111.39 934.98,106.31 925.56,98.8L885.3,66.71C869.86,54.4 850.62,46.11 831.09,51.93C821.27,54.86 812.39,59.51 804.43,66.05L771.29,93.33C763.56,99.69 755.7,105.06 746.92,109.73C731.48,117.94 713.78,117.86 698.37,109.67C689.47,104.94 681.52,99.48 673.64,93.08L641.88,67.31C634.26,61.13 625.84,56.76 616.46,53.84C607.58,51.08 598.58,50.63 589.57,53.18C580.25,55.82 571.75,60.05 564.18,66.19L523.2,99.48C504.67,114.54 482.98,123.07 460.05,113.31C451.3,109.59 443.53,104.88 436.14,98.81L403.24,71.83C396.6,66.39 389.66,62.19 382.03,58.45C359.07,47.19 337.12,55.28 318.15,70.64L277.66,103.44L263.08,112.86C248,121.33 230.08,121.55 214.7,114.01C206.68,110.08 199.54,105.65 192.68,99.99L167.2,78.95C146.4,61.78 124.03,48.19 97.18,59.79C90.49,62.68 84.44,66.05 78.76,70.66L52.3,92.16C36.05,105.4 22.23,118.61 0.01,121.33L0.01,106.08L0.02,106.08Z" style="fill:rgb(5,14,18);fill-rule:nonzero;"/>
        <path d="M0.02,355.2L0.02,339.84C14.57,338.71 29.36,329.63 41,320.31L74.81,293.26C83.62,286.21 93.38,281.13 104.21,278.03C116.35,274.55 128.76,276.45 139.93,281.91C146.11,284.93 151.53,288.09 156.86,292.41L190.76,319.87C199.3,326.78 207.92,332.97 217.84,337.33C232.99,343.98 248.92,343.26 263.47,335.48C271.97,330.93 279.65,325.6 287.21,319.46L312.35,299.07C346.53,271.34 371.89,271.39 405.94,299.53L433.25,322.1C453.76,339.05 477.15,351.03 502.88,338.9C510.88,335.13 517.99,330.56 524.94,324.97L554.17,301.47C560.94,296.03 567.74,291.27 575.26,287.13C593.46,277.12 614.46,278.5 631.85,289.55C652.42,302.63 665.65,316.65 684,329.94C701.25,342.44 720.05,350.74 740.9,342.3C750.61,338.37 759.33,333.28 767.5,326.67L801.13,299.42C808.68,293.3 816.71,288.55 825.79,285.19C850.7,275.98 871.73,286.98 891.04,302.87L917.6,324.74C923.76,329.81 929.97,334.11 936.74,338.27C944.04,342.76 951.64,344.77 960.1,347.72C949.58,347.61 940.15,342.24 931.52,336.75C909.91,323.01 893.3,303.51 869.79,290.64C855.47,282.8 839.58,281.89 824.53,288.29C815.31,292.21 807.13,297.42 799.36,303.9L770.11,328.33C762.04,335.07 753.63,340.6 744.13,345.06C731.07,351.2 716.4,351.6 703.15,345.84C694.75,342.19 687.23,337.71 680.1,331.95L647.48,305.6C631.9,293.01 612.7,282.02 592.47,286.5C581.82,288.85 572.24,293.63 563.77,300.49L525.91,331.21C518.84,336.94 511.8,341.92 503.66,345.94C480.85,357.2 457.9,350.1 438.87,334.71L405.19,307.48C396.7,300.61 387.9,294.81 377.84,290.74C353.44,280.86 333.31,292.21 314.25,307.69L277.22,337.77C259.79,351.93 239.24,358.47 217.87,349.35C208.84,345.5 200.86,340.45 193.16,334.24L158.93,306.64C146.74,296.81 129.48,287.69 113.67,289.52C101.89,290.89 90.54,295.17 81.34,302.66L39.58,336.67C28.29,345.86 14.23,353.9 0.01,355.2L0.02,355.2Z" style="fill:rgb(5,14,18);fill-rule:nonzero;"/>
        <path d="M0.02,210.72L0.02,195.84C16.99,194.35 31.96,183.58 45.38,173L82.88,143.44C90.05,138.48 98.02,135.05 106.47,133C119.07,129.94 131.48,132.93 142.69,139.06C155.02,145.8 165.58,154.37 176.11,163.68C187.18,173.46 198.33,182.57 210.9,190.2C226.76,199.83 245.46,200.98 262,192.36L276.3,183.68L313.76,154.06C333.08,138.78 352.79,127.74 377.47,137.46C387.29,141.33 395.92,146.78 404.02,153.59L431.13,176.37C439.81,183.66 448.7,190.18 458.85,195.08C470.03,200.48 481.9,201.8 493.73,198.25C504.1,195.14 513.34,190.36 521.77,183.56L556.81,155.3C577.4,138.69 600.86,128.71 625.84,141.97C634.62,146.63 642.47,152.03 650.14,158.44L679.4,182.89C687.53,189.68 696.34,194.95 706.21,198.73C718.42,203.4 731.17,202.77 743.19,197.67C752.32,193.79 760.38,188.63 768.12,182.32L800.87,155.62C807.46,150.24 814.27,146.2 821.89,142.51C844.65,131.48 864.5,139.27 883.74,153.25C901.54,166.18 915.94,181.23 934.8,193.34C942.69,198.41 950.75,201.11 960.14,203.43C945.74,203.85 928.53,191.37 917.39,182.42L886.01,157.22C878.15,150.91 869.64,146.15 860.14,142.77C850.38,139.3 840.17,139.17 830.27,142.38C821.39,145.26 813.12,149.39 805.83,155.29L770.6,183.8C750.26,200.26 729.22,212.1 703.06,201.44C693.97,197.74 685.84,192.79 678.18,186.53L652.58,165.59C644.06,158.62 635.35,152.54 625.59,147.52C611.46,140.25 595.52,139.77 581.13,146.51C570.79,151.35 561.8,157.62 553,164.87L525.91,187.2C517.65,194.01 508.87,199.43 498.99,203.42C485.94,208.69 472.34,208.37 459.43,202.75C451.64,199.36 444.65,195.06 437.97,189.7L409.79,167.06C388.29,149.79 366.39,135.45 338.62,148.27C329.71,152.39 321.75,157.67 314.08,163.98L284.08,188.64C276.5,194.87 268.63,200.02 259.78,204.14C246.75,210.21 232.62,210.68 219.21,205.46C210.54,202.08 202.81,197.59 195.5,191.72L160.95,163.99C152.24,157 142.81,151.68 132.28,148.06C111.18,140.8 90.89,150.65 74.34,164.11L42.33,190.14C30.28,199.93 15.22,209.54 0.02,210.72Z" style="fill:rgb(5,14,18);fill-rule:nonzero;"/>
        <path d="M0.02,103.2L0.02,87.84C15.17,86.7 30.89,76.65 42.92,66.9L71.29,43.94C79.92,36.96 89.15,31.56 99.5,27.53C110.69,23.18 122.46,23.38 133.74,27.53C143.25,31.02 151.7,36.03 159.6,42.47L195.5,71.74C203.4,78.18 211.86,83.08 221.39,86.67C233.56,91.26 246.63,91.05 258.55,85.78C268.6,81.34 277.48,75.56 285.97,68.61L312.61,46.82C319.59,41.11 326.72,36.51 334.7,32.37C349.71,24.6 366.98,24.3 382.12,31.98C390.7,36.33 398.43,41.42 405.91,47.55L435.43,71.74C444.66,79.3 454.39,85.5 465.72,89.38C486.79,96.59 506.9,87.39 523.63,74.03L560.4,44.66C567.54,38.95 575.23,34.68 583.71,31.54C598.45,26.09 613.8,27.7 627.49,35.1C635.05,39.19 641.82,43.69 648.52,49.19L681.14,75.97C688.34,81.88 696.08,86.38 704.63,89.91C717.23,95.11 730.49,94.85 742.99,89.46C750.8,86.09 758.03,82.05 764.73,76.65L795.79,51.65C816.31,35.13 838.16,22.91 864.24,34.02C871.9,37.28 878.87,41.19 885.38,46.45L906.86,63.83C923.03,76.91 938.2,90.69 959.49,94.47C959.64,95.19 959.56,95.81 959.21,96.19C944.54,94.05 930.9,85.3 919.5,76.11L886.1,49.14C879.7,43.97 872.92,40 865.55,36.59C852.47,30.55 838.44,30.38 825.19,35.95C815.69,39.94 807.34,45.24 799.35,51.84L765.99,79.36C758.82,85.28 751.17,89.81 742.71,93.53C729.56,99.32 715.19,99.36 702.13,93.42C694.24,89.84 687.04,85.69 680.36,80.18L658.77,62.39C637.99,45.27 614.8,26.58 586.81,36.01C577.21,39.25 568.73,44.03 560.92,50.43L522.48,81.97C515.15,87.99 507.4,92.62 498.6,96C485.87,100.89 472.52,100.46 459.96,95.19C451.44,91.61 443.85,86.95 436.63,81.06L404.99,55.21C397.91,49.43 390.63,44.76 382.54,40.68C367.85,33.27 351.85,33.32 337.03,40.57C328.24,44.87 320.38,50.22 312.82,56.61L287.88,77.7C280.03,84.33 271.93,90.12 263,94.94C246.7,103.73 228.54,103.47 212.31,94.77C203.7,90.15 195.95,84.75 188.34,78.46L163.37,57.84C154.79,50.75 145.73,44.78 135.44,40.74C124.08,36.27 112.54,36.01 101.15,40.2C91.92,43.59 83.66,48.18 76,54.45L34.36,88.53C24.41,96.69 12.41,101.69 0.02,103.2Z" style="fill:rgb(5,14,18);fill-rule:nonzero;"/>
        <path d="M0.02,462.72L0.02,447.84C18.89,446.06 34.16,434.11 48.85,422.23L76.13,400.16C83.53,394.17 91.57,389.83 100.56,386.65C112.39,382.46 124.65,382.95 136.11,388.02C145.33,392.09 153.58,397.12 161.44,403.54L202.37,436.91C209.85,443.01 218.7,446.82 228.05,449.11C249.08,454.26 269.13,442.47 285.23,429.32L314.03,405.82C333.63,389.82 354.79,379.57 379.52,390.32C388.7,394.31 396.77,399.67 404.49,406.12L431.13,428.38C438.86,434.84 446.55,440.58 455.33,445.4C469.59,453.24 485.64,454.45 500.77,448.03C511.86,443.33 521.36,436.32 530.69,428.67L557.57,406.61C565.58,400.04 574.27,395 583.87,391.2C597.56,385.77 612.13,386.96 625.1,393.7C634.37,398.52 642.64,404.13 650.66,410.86L677,432.97C685.94,440.47 695.42,446.6 706.28,450.67C717.69,454.95 729.08,455.07 740.46,450.74C750.66,446.86 759.72,441.35 768.19,434.36L796.27,411.17C803.55,405.16 811.05,400.17 819.26,395.77C834.83,387.43 851.99,387.24 867.74,395.42C878.59,401.06 888.26,408.2 897.73,416.21C909.65,426.28 921.21,436.14 934.02,445.08C942.02,450.67 950.52,452.9 960.08,455.47C950.25,455.59 941.41,450.7 933.27,445.85C899.81,425.93 866.4,376.23 822.89,397.04C814.76,400.93 807.3,405.49 800.2,411.31L767.28,438.28C748.62,453.56 727.35,463.2 703.8,453.63C693.92,449.62 685.07,444.23 676.81,437.46L648.89,414.56C640.66,407.81 631.92,402.39 622.27,398.03C608.36,391.75 593.42,392.43 579.71,399.05C570.88,403.32 562.98,408.66 555.36,414.96L530.42,435.59C514.03,449.15 494.21,462.13 472.48,458.49C464.43,457.14 456.67,454.52 450.01,449.73L429.39,434.89L400.63,411.88C393.3,406.02 385.38,401.63 376.65,398.42C364.86,394.08 352.87,394.27 341.31,399.03C332.6,402.62 324.86,407.18 317.46,413.15L276.07,446.54C267.99,453.06 258.65,457.39 248.59,459.83C228.07,464.81 208.45,454.11 192.59,441.38L161.21,416.19C153.09,409.67 144.42,404.68 134.78,400.86C111.23,391.53 90.39,403.14 71.75,417.91L30.11,450.91C21.32,457.88 10.62,461.31 -0,462.71L0.02,462.72Z" style="fill:rgb(5,14,18);fill-rule:nonzero;"/>
        <path d="M0,336.96L0,322.08C9.99,320.93 19.18,317.06 27.89,311.54C40.24,303.71 51.22,294.62 62.37,285.14C72.57,276.47 83.12,268.98 95.17,263.25C119.36,251.74 141.27,261.98 160.98,277.73L198.81,307.97C205.18,313.06 212.05,316.77 219.45,319.98C232.31,325.54 245.87,325.4 258.68,319.68C267.17,315.9 275.01,311.32 282.32,305.41L313.58,280.12C321.93,273.37 330.66,267.88 340.57,263.97C354.03,258.66 368.02,259.18 380.96,265.49C391.63,270.69 400.88,277.29 410.03,284.85L434.74,305.26C442.94,312.03 451.64,317.54 461.38,321.78C475.2,327.8 490.28,327.23 503.77,320.54C513.02,315.95 521.23,310.38 529.26,303.85L557.55,280.83C565.06,274.72 573.04,269.98 581.91,266.35C597.7,259.89 614.31,261.33 628.98,269.9C639.36,275.96 648.74,282.94 657.83,290.92C666.15,298.22 674.57,304.73 683.25,311.55C688.58,315.74 693.86,318.8 699.84,321.88C724.23,334.44 745.76,324.98 766.37,309.68C793.18,289.79 822.43,254.37 858.82,266.06C869.3,269.43 878.68,274.82 887.19,281.78L922.01,310.27C932.08,318.51 947.11,326.99 959.55,328.46C959.64,329.34 959.55,329.94 959.35,330.12C959.21,330.24 958.67,330.15 958.34,330.09C910.57,321.93 877.26,247.49 824.69,270.18C814.23,274.7 805.04,280.86 796.27,288.26L771.83,308.91C763.38,316.05 754.52,322.03 744.58,326.72C730.84,333.21 715.78,333.73 701.98,327.36C693.19,323.3 685.28,318.41 677.78,312.23L648.6,288.17C640.99,281.89 632.93,276.7 624.09,272.46C608.67,265.05 591.8,266.26 576.84,274.19C567.96,278.9 560.32,284.71 552.49,291.14L521.71,316.43C515.14,321.83 508.22,325.93 500.43,329.25C487.94,334.58 474.58,334.91 461.93,329.9C453.18,326.44 445.26,321.95 437.96,315.99L413.65,296.15C393.17,279.44 371.63,262.56 344.46,271.63C327.01,277.46 312.69,290.48 298.94,302.4C288.27,311.64 277.73,320.37 265.55,327.53C254.86,333.81 242.81,336.97 230.45,334.85C221.08,333.24 211.79,330.01 204.29,324.12L161.32,290.37C142.91,275.92 123.72,265.44 100.19,274.51C90.57,278.22 82.06,283.47 73.97,290.03L31.91,324.13C22.68,331.61 11.46,336 0.04,336.97L0,336.96Z" style="fill:rgb(5,14,18);fill-rule:nonzero;"/>
        <path d="M0.01,214.08C11.67,212.51 22.63,207.9 32.45,200.89L68.56,172.28C77.24,165.4 85.39,159.05 95.52,154.54C108.19,148.9 121.54,148.26 134.62,153.43C143.38,156.89 151.39,161.54 158.83,167.59L201.68,202.41C211.81,210.65 224.35,215.77 237.49,216.26C253.32,216.85 269.79,207.88 281.93,197.98L316.49,169.78C332.11,157.03 352.68,147.89 372.61,153.87C383.47,157.13 392.87,162.79 401.59,169.96L436.86,198.96C444.6,205.32 452.48,210.7 461.7,214.4C492.11,226.63 514.49,207.69 536.71,189.86L560.39,170.86C578.91,156 600.93,148.01 623.3,158.87C630.66,162.45 637.44,166.29 643.78,171.53L676.61,198.62C696.28,214.85 718.97,226.81 743.82,215.58C753.17,211.36 761.43,205.96 769.38,199.43L799.66,174.56C807.11,168.44 814.92,163.64 823.73,159.72C849.33,148.31 872.31,161.25 892.24,177.81L917.41,198.73C923.44,203.74 929.46,208.1 936.11,212.2C943.57,216.8 951.31,218.93 960.08,221.43C945.56,221.79 927.83,208.96 916.47,199.68L890.59,178.55C872.58,163.85 851.29,152.76 828.22,160.87C819.94,163.78 812.46,167.75 805.62,173.3L772.27,200.37C751.06,217.58 728.36,231.51 700.92,218.45C691.62,214.02 683.14,208.68 675.12,202.09L648.27,180C640.29,173.43 631.81,168.35 622.43,164.08C608.94,157.95 594.37,158.34 580.88,164.51C571.4,168.85 563.02,174.52 554.94,181.22L529.75,202.09C512.11,216.71 491.18,229.77 467.93,223.51C458.78,221.05 450.44,216.88 442.99,211.06L402.1,179.1C383.83,164.83 362.81,155.37 340.4,165.33C331.62,169.24 323.68,173.9 316.21,180.04L283.61,206.85C265.56,221.69 245.65,231.91 222.34,224.4C213.53,221.56 205.5,217.44 198.18,211.61L158.93,180.41C150.9,174.02 142.2,169.2 132.55,166.06C102.99,156.45 81.71,176.01 59.99,193.43L32.58,215.41C22.63,222.39 11.84,227.4 0.02,228.89L0.02,214.07L0.01,214.08Z" style="fill:rgb(5,14,18);fill-rule:nonzero;"/>
        <path d="M0.02,70.08C9.93,68.92 18.96,65.17 27.6,59.74C38.85,52.67 48.95,44.69 59.01,35.98C69.5,26.89 80.32,18.93 92.58,12.5C106.77,5.07 122.69,4.33 137.34,11C146.32,15.09 154.49,20.13 162.17,26.45L192.4,51.35C200.63,58.13 209.26,63.67 218.96,67.95C242.8,78.46 265.09,67.37 284.25,52.01L314.05,28.11C332.64,13.2 353.51,2.48 377.14,12.02C387.38,16.15 396.42,21.8 404.97,28.8L437.65,55.57C445.24,61.79 453.29,66.58 462.32,70.28C474.88,75.43 488.32,75.41 500.73,69.88C510.14,65.68 518.61,60.54 526.62,54.01L557.52,28.81C565.69,22.15 574.51,17.14 584.34,13.42C609.12,4.01 629.67,16.38 648.71,31.73L684.5,60.59C691.09,65.9 698.2,69.74 706.09,72.62C717.13,76.65 728.66,76.86 739.68,72.77C750.7,68.68 759.74,63.21 768.54,56.05L801.59,29.16C810.18,22.17 819.8,17.03 830.37,13.8C855.19,6.22 876.38,20.77 894.86,36.05C907.31,46.35 919.28,56.71 932.65,65.76C940.36,70.99 948.62,74.71 957.61,76.53L959.28,76.44C959.53,76.43 959.69,77.18 959.47,78.15C944.18,76.29 928.89,65.99 916.68,55.92L889.08,33.16C880.9,26.42 872.1,21.12 862.32,17.25C850.53,12.59 838.53,12.76 826.72,17.35C816.26,21.42 807.04,27.3 798.38,34.54L769.64,58.56C761.37,65.47 752.71,71.2 742.88,75.42C730.27,80.82 717.15,81.3 704.39,76.25C695.45,72.72 687.41,68.02 679.89,61.86L647.5,35.3C639.61,28.83 631.4,23.54 622.05,19.47C597.94,8.98 574.89,20.34 555.87,36.25L529.24,58.53C521.13,65.32 512.84,71.21 503.46,75.91C490.74,82.28 477.12,83.18 463.76,78.42C455.88,75.61 448.87,72.01 442.24,66.77L406.41,38.41C387.49,23.44 367.17,10.83 342.61,20.18C333.45,23.67 325.18,28.23 317.63,34.58L287.41,59.99C278.96,67.09 270.2,73.09 260.41,78.09C247.86,84.5 233.79,85.22 220.64,80.22C212.55,77.14 205.19,73.28 198.44,67.85L168.41,43.72C158.61,35.85 148.72,28.65 137.37,23.48C109.75,10.91 86.99,27.33 66.22,44.19L31.55,72.32C21.91,79.16 11.58,84.21 0.01,85.33L0.01,70.08L0.02,70.08Z" style="fill:rgb(5,14,18);fill-rule:nonzero;"/>
        <path d="M0,480.51L0,466.08C15.75,464.42 28.82,456.29 41.29,446.38L81.61,414.35C87.79,409.44 95.04,406.44 102.51,404.03C121.19,397.99 142.41,406.26 157.16,418.37L197.16,451.21C214.86,465.74 237.21,473.82 258.98,464.01C265.03,461.29 270.78,458.39 276.07,454.16L313.3,424.36C348.25,396.39 372.02,397.32 406.64,426.02L438.35,452.31C445.91,458.58 454.06,463.42 463.13,466.87C476.67,472.02 490.64,471.2 503.51,464.8C510.85,461.15 517.52,457.34 523.99,452.11L560.03,422.98C567.81,416.69 576.14,411.96 585.51,408.61C597.48,404.32 609.55,405.08 621.22,410.09C631.58,414.53 640.73,420.63 649.42,427.93L676.26,450.48C684.5,457.4 693.17,463.09 702.94,467.44C716.54,473.49 730.99,473.53 744.51,467.28C753.66,463.05 761.81,457.67 769.64,451.21L796.96,428.64C816.45,412.54 839.21,400.94 863.76,411.75C872.78,415.72 880.9,420.52 888.57,426.82L925.64,457.29C935.81,465.65 947.23,470.4 960.04,473.34C951.26,474.08 943.78,469.46 936.37,465.86C917.18,454.24 902.3,438.88 884.07,425.57C879.04,421.9 874.05,419.37 868.66,416.45C844.51,403.36 821.31,412.08 801.08,428.5L761.66,460.48C753.62,467 744.46,471.43 734.48,474.06C713.87,479.5 693.05,468.39 677.01,455.5L643.03,428.17C635.7,422.28 627.66,418.05 618.95,414.79C606.49,410.13 593.41,410.31 581.43,416.16L569.31,422.73C557.22,430.73 546.48,439.86 535.52,449.32C512.56,469.15 487.09,486.33 456.68,471.46C450.03,468.21 443.96,464.53 438.07,459.82L401.61,430.65C393.92,424.5 385.7,419.74 376.53,416.36C366.01,412.49 355.03,412.01 344.53,415.69C335.68,418.79 327.81,422.83 320.57,428.73L291.75,452.2C271.89,468.37 250.66,485.39 223.44,476.78C213.43,473.61 204.47,468.77 196.26,462.22L159.5,432.85C152.28,427.08 144.64,422.62 136.12,419.26C123.87,414.44 111.14,414.36 98.87,419.13C89.89,422.62 81.9,427.38 74.43,433.56L42.43,460.04C30.69,469.76 14.91,479.68 0,480.51Z" style="fill:rgb(5,14,18);fill-rule:nonzero;"/>
        <path d="M0.02,319.2L0.02,303.84C9.42,303.18 17.98,299.47 26.29,294.57C49.78,280.71 65.34,261.34 91.11,247.23C106.37,238.87 123.54,238.07 139.14,245.81C147.98,250.19 155.98,255.29 163.65,261.62L193.86,286.55C201.27,292.67 209.09,297.5 217.75,301.52C230.45,307.42 244.25,307.71 257.16,302.39C266.65,298.48 275.11,293.53 283.13,287.05L318.13,258.78C325.36,252.94 333.23,248.67 341.89,245.55C364,237.57 383.8,246.33 401.52,260.32L445.16,294.78L457.39,302.18C473.38,310.58 491.6,309.82 507.06,300.89C515.6,295.95 523.44,290.84 531.1,284.57L558.01,262.56C565.9,256.11 574.32,251.18 583.88,247.64C603.9,240.22 622.7,246.16 639.42,258.52C651.13,267.17 661.79,276.5 672.97,285.83C693.43,302.91 715.7,316.73 742.4,305.87C751.11,302.33 758.96,297.86 766.32,291.86L799.6,264.72C807.35,258.4 815.65,253.49 824.9,249.72C847.64,240.44 868.73,248.96 886.98,263.78L921.64,291.94L933.97,300.8C941.86,306.47 950.56,308.78 960.23,311.48C947.21,312.67 927.95,299.06 917.67,290.65L886.03,264.78C878.61,258.71 870.43,254.27 861.52,250.93C849.35,246.37 836.77,246.99 824.88,252.05C815.1,256.22 806.43,261.75 798.24,268.61L767.97,293.98C759.95,300.71 751.33,305.95 741.65,309.89C728.45,315.27 714.12,314.94 701.21,308.96C693.14,305.22 685.9,300.8 679,295.14L646.09,268.17C639.18,262.51 632.02,257.99 623.97,254.27C612.34,248.9 599.78,247.74 587.52,251.8C576.87,255.32 567.28,260.73 558.64,267.97L527.85,293.76C519.99,300.35 511.76,305.73 502.58,310.24C477.9,322.36 454.99,311.73 435,295.46L404.06,270.27C395.91,263.63 387.27,258.34 377.53,254.59C364.65,249.63 351.18,249.95 338.69,255.77C329.19,260.19 320.68,265.66 312.67,272.48L285.99,295.19C276.72,303.09 266.78,309.49 255.48,314.08C244.36,318.6 232.39,318.54 221.19,314.43C215.47,312.33 210.02,310.15 205.15,306.47L183.84,290.37L154.42,267.06C147.69,262.32 140.73,258.65 132.99,255.83C120.8,251.39 107.97,252.52 96.17,258.06C83.44,264.04 72.58,272.53 61.94,281.78C50.81,291.46 39.97,300.79 27.63,308.87C19.08,314.47 10.06,318.45 0.05,319.21L0.02,319.2Z" style="fill:rgb(5,14,18);fill-rule:nonzero;"/>
        <path d="M0.01,246.75L0.01,231.84C15.92,230.74 31.2,220.95 43.66,210.69L68.4,190.32C88.18,174.03 108.85,161.75 134.64,171.54C142.46,174.51 149.38,178.2 155.85,183.5L195.09,215.65C202.3,221.55 209.83,226.19 218.24,229.96C242.02,240.6 263.73,230.68 282.85,215.22L319.41,185.65C336.17,172.09 358.16,165.27 378.66,174.15C385.25,177.01 391.29,180.22 396.91,184.76L437.44,217.55C455.14,231.87 475.25,241.34 497.65,233.32C506.47,230.16 514.2,225.61 521.52,219.77L556.17,192.08C574.87,177.14 595.03,166.05 618.94,175.29C628.82,179.11 637.67,184.27 645.84,191.1L678.21,218.14C686.07,224.7 694.49,229.76 703.81,233.81C728.56,244.58 751.12,232.69 770.62,216.5L795.52,195.83C803.3,189.37 811.32,183.83 820.24,179.36C850.1,164.38 875.29,181.17 898.23,200.68C908.21,209.17 917.7,217.58 928.33,225.23C938.09,232.26 948.1,236.79 960.18,239.34C946.31,240.31 926.24,225.91 915.5,216.98L892.69,198.03C884.35,191.1 875.53,185.3 865.78,180.9C850.14,173.84 833.89,174.7 818.94,182.79C809.22,188.05 800.63,194.31 792.14,201.6C780.3,211.77 768.64,221.52 755.81,230.46C740.77,240.94 722.68,244.86 705.25,238.14C695.27,234.29 686.3,229.01 677.99,222.24L646.03,196.19C637.95,189.6 629.23,184.62 619.53,180.92C599.73,173.37 581.65,179.4 565.11,191.46C552.4,200.72 540.81,210.7 528.79,220.82C507.57,238.68 483.36,250.78 456.59,237.36C447.63,232.86 439.85,227.43 432.06,221.09L405.6,199.58C398.16,193.53 390.45,188.51 381.88,184.45C368.09,177.92 353.38,177.44 339.4,183.63C330.28,187.67 322.17,192.96 314.4,199.36L283.12,225.15C275.9,231.1 268.45,235.94 260.01,239.97C236.03,251.41 212.69,241.73 193.14,225.86L162.96,201.35C141.44,183.87 117.68,174.21 91.71,188.31C67.82,201.27 51.71,220.95 29.22,235.61C20.15,241.52 10.57,245.87 0.01,246.75Z" style="fill:rgb(5,14,18);fill-rule:nonzero;"/>
        <path d="M0.02,498.72L0.02,483.84C16.66,482.7 30.88,472.94 43.92,462.46L79.52,433.85C89.84,426.15 101.88,420.92 114.73,420.26C126.92,419.63 138.25,424.01 148.38,430.53C169.76,444.3 187.75,464.09 205.72,475.33C237.48,495.21 260.3,486.15 287.43,463.66L310.25,444.74C332.45,426.33 357.18,413.54 384.62,428.96C393.97,434.21 402.45,440.42 410.74,447.39L434.72,467.53C442.42,474 450.47,479.33 459.56,483.44C473.69,489.83 488.8,489.9 502.84,483.28C511.55,479.18 519.35,474.11 526.86,467.96L555.88,444.21C572.74,430.41 592.59,419.43 614.56,425.91C626.81,429.53 637.31,436.07 647.05,444.21L675.57,468.02C684.27,475.28 693.43,481.31 703.8,485.81C726.02,495.44 745.12,487.42 763.5,473.86C782.54,459.82 796.58,444.6 818.05,432.53C831.98,424.69 847.69,423.4 862.55,429.33C889.14,439.94 909.13,465.52 934.69,481.4C942.66,486.35 950.8,488.99 960.13,491.37C946.75,492.14 927.91,479.15 917.62,470.67L890.28,448.11C882.12,441.38 873.52,435.99 863.74,431.96C851.84,427.06 838.99,426.67 826.92,431.31C817.15,435.07 808.45,440.28 800.34,446.95L764.83,476.12C758.82,481.06 752.51,484.69 745.57,488.13C732.69,494.51 718.4,495.11 704.88,490C695,486.27 686.23,480.92 677.98,474.21L644.68,447.13C627.94,433.52 605.56,424.74 584.64,432.75C574.5,436.63 565.67,442.19 557.32,449.08L523.96,476.61C516.78,482.54 509.16,487.04 500.66,490.78C478.08,500.73 455.47,491.95 437.12,477.08L403.76,450.06C396.71,444.35 389.37,439.91 381.22,436.08C367.86,429.8 353.31,429.45 339.76,435.5C333.29,438.39 327.02,441.41 321.4,445.96L284.1,476.2C262.64,493.6 241.92,504.26 214.61,491.35C204.04,486.35 195.11,479.39 185.95,472.07L157.97,449.69C151.72,444.69 145.1,440.89 137.8,437.72C125.42,432.35 112.33,431.96 99.71,436.76C92.3,439.58 85.47,443.01 79.26,447.99L53.74,468.5C37.16,481.83 22.64,496.24 -0,498.73L0.02,498.72Z" style="fill:rgb(5,14,18);fill-rule:nonzero;"/>
        <path d="M0,300.96L0,286.08C12.45,284.49 23.72,279.12 34.18,271.72L66.17,246.2C87.1,229.5 109.53,214.68 136.66,226.67C146.07,230.83 154.43,236.08 162.43,242.66L196.88,271.02C203.12,276.15 209.77,280.05 217.06,283.49C239.37,294 262.79,285.48 281.12,270.62L315.01,243.14C322.71,236.9 330.84,231.93 339.92,228.25C367.55,217.04 389.43,232.25 410.29,249.12L444.47,276.76C449.4,280.74 454.98,283.32 460.72,285.93C484.46,296.73 508.57,285.11 527.54,269.47L555.41,246.5C563.13,240.14 571.17,235.14 580.32,231.04C593.1,225.32 607.34,224.66 620.47,229.93C629.05,233.38 636.77,237.96 643.93,243.86L677.03,271.18C684.69,277.5 692.74,282.68 701.67,286.81C726.99,298.52 749.06,287.81 769.37,271.36L799.82,246.7C806.36,241.4 812.98,237.42 820.45,233.65C834.06,226.77 849.18,225.82 863.44,231.67C872.42,235.36 880.42,240.23 887.98,246.46L919.55,272.42L935.33,283.51C942.8,288.76 950.97,290.95 960.05,293.45C950.63,293.69 941.98,289.07 934.03,284.32C898.14,262.89 867.22,213.47 821.93,235.29C811.87,240.14 803,246.47 794.36,253.69L767.72,275.96C759.68,282.68 751.12,288.04 741.43,291.87C727.86,297.25 713.58,296.79 700.5,290.41C692.03,286.28 684.41,281.45 677.01,275.49L641.71,247.04C635.65,242.16 629.13,238.55 622.06,235.49C610.87,230.64 598.93,229.98 587.34,233.81C576.87,237.28 567.51,242.53 558.98,249.6L523.1,279.37C515.98,285.28 508.36,289.62 499.95,293.2C486.41,298.95 471.93,298.71 458.61,292.39C451.13,288.84 444.27,284.85 437.81,279.57L406.15,253.73C397.39,246.58 388.2,240.69 377.73,236.61C364.37,231.41 350.28,231.98 337.46,238.19C327.61,242.97 319.05,248.97 310.68,256.04L282.85,279.54C275.21,285.99 267.01,290.93 257.93,294.92C243.38,301.32 227.62,300.58 213.63,293.18C205.93,289.1 198.99,284.62 192.18,279.08L161.01,253.68C153.05,247.2 144.47,242.14 134.92,238.51C115.72,231.22 100,236.22 83.43,247.12C73.11,253.91 64,261.58 54.7,269.73C39.41,283.14 20.15,299.11 0,300.94L0,300.96Z" style="fill:rgb(5,14,18);fill-rule:nonzero;"/>
        <path d="M0,250.02L10.46,248.02C20.57,244.93 29.69,239.95 37.89,233.24L67.15,209.27C74.7,203.09 82.25,197.68 90.77,193.09C108.06,183.76 128.18,184.1 144.91,194.48C156.06,201.4 165.92,209.54 176.09,217.91L198.72,236.55C217.44,250.21 237.05,257.86 259.34,247.91C267.55,244.24 274.87,239.7 281.93,234L317.19,205.54C326.59,197.95 336.67,192.24 348.48,189.32C360.65,186.31 372.99,188.95 383.85,194.86C389.46,197.92 394.59,200.65 399.53,204.71L428.73,228.71C438.42,236.67 447.98,244.21 459.31,249.36C474.1,256.08 489.83,255.92 504.33,248.64C512.99,244.29 520.74,239.03 528.29,232.83L555.41,210.56C563.66,203.79 572.23,198.15 582.05,194.06C605.43,184.3 628.19,194.48 646.66,209.92L674.6,233.28C683.37,240.61 692.54,246.87 702.91,251.46C716.22,257.34 730.17,257.55 743.45,251.75C751.27,248.33 758.38,244.25 765.08,238.8L800.77,209.8C808.7,203.36 817.2,198.44 826.71,194.93C838.92,190.42 851.37,190.66 863.4,195.69C872.96,199.69 881.55,205.02 889.56,211.71L918.82,236.13C925.07,241.34 931.46,245.61 938.49,249.6C945.52,253.59 952.27,254.99 960.01,257.52C949.88,257.38 940.77,252.35 932.29,247.14C899.62,227.06 869.19,182.3 828.17,196.83C817.87,200.48 808.99,205.98 800.53,212.88L766.72,240.44C748.57,255.24 727.47,265.26 704.61,255.98C694.11,251.72 684.77,245.81 675.96,238.63L645.05,213.44C627.61,199.23 605.48,190.35 583.71,199.07C573.7,203.08 564.86,208.63 556.55,215.54L524.61,242.08C517.64,247.87 510.31,252.32 502.14,256.14C488.63,262.45 473.79,262.7 460.01,256.85C451.52,253.25 443.88,248.63 436.68,242.77L407.58,219.09C397.48,210.87 386.95,203.66 374.47,199.48C361.16,195.02 346.89,197.11 334.61,203.82L317.97,214.59L279.15,246.11C271.01,252.72 262.2,257.81 252.17,260.93C231.88,267.26 210.52,257.97 194.57,244.98L162.61,218.94C154.23,212.11 145.24,206.75 135.27,202.63C123.79,197.88 111.49,198.37 99.93,202.72C91.81,205.77 84.42,209.62 77.69,215.07L52.27,235.67C35.81,249.01 22.52,261.81 -0.03,264.9L-0.03,250.02L0,250.02Z" style="fill:rgb(5,14,18);fill-rule:nonzero;"/>
        <path d="M0.02,535.2L0.02,519.84C9.63,518.86 19.23,515.98 27.35,510.16L44.67,497.76L72.17,475.41C79.58,469.39 87.35,464.77 96.04,460.86C109.76,454.68 124.94,454.88 138.55,461.47C148.45,466.26 157.31,472.22 165.76,479.31L193.66,502.71C200.85,508.74 208.45,513.53 216.92,517.37C240.78,528.18 263.01,519.43 282.35,503.68L313.78,478.07C320.87,472.29 328.16,467.61 336.33,463.67C362.18,451.22 385.81,462.78 406.44,479.99L432.32,501.58C439.81,507.83 447.46,513.15 455.95,517.74C470.5,525.6 486.53,526.27 501.7,519.59C510.63,515.66 518.66,510.64 526.32,504.4L558.29,478.33C567.63,470.71 578,464.95 589.7,461.83C608.56,456.79 628.27,465.07 642.97,477.16L678.74,506.56C697.71,522.15 721.58,532.14 744.94,521.03C752.74,517.32 759.87,513.11 766.57,507.64L797.44,482.44C804.81,476.42 812.41,471.6 820.84,467.41C849.81,453.02 873.94,468.32 896.3,487.25C908.21,497.33 919.79,507.17 932.58,516.15C941.05,522.1 949.92,524.83 960.16,527.55C950.33,527.91 941.45,522.74 933.29,517.86C899,497.34 868.74,450.05 825.52,467.84C815.36,472.02 806.42,477.79 797.93,484.85L769.66,508.36C761.85,514.86 753.8,520.33 744.67,524.6C731.15,530.91 716.84,531.15 703.07,525.41C693.29,521.33 684.6,515.79 676.34,509L648.46,486.08C640.5,479.54 632.28,474.06 622.92,469.9C609.52,463.95 595.27,463.96 581.85,469.84C572.04,474.14 563.43,479.87 555.14,486.77L526.37,510.71C518.71,517.08 510.74,522.3 501.74,526.38C487.77,532.71 472.67,533.03 458.76,526.5C450.14,522.45 442.39,517.51 434.99,511.43L407.38,488.69C399.24,481.99 390.76,476.52 381.23,472.09C368.91,466.36 355.58,465.5 342.75,470.11C334.93,472.92 327.84,476.58 321.37,481.87L283.63,512.7C274.35,520.28 264.94,526.74 253.53,530.58C240.12,535.08 225.97,533.72 213.5,527.14C206.28,523.33 199.73,519.25 193.38,514.06L161.99,488.42C153.47,481.46 144.27,476.01 134.01,472.26C114.95,465.28 99.27,470.76 83,481.48C72.33,488.51 62.93,496.58 53.28,504.98C37.97,518.31 20.21,532.8 0.03,535.23L0.02,535.2Z" style="fill:rgb(5,14,18);fill-rule:nonzero;"/>
        <path d="M0.02,502.08C11.39,500.8 21.79,496.32 31.4,489.79L50.86,474.69L80.35,451.43C85,447.77 90.17,445.48 95.47,443.01C111.39,435.59 129.17,437.22 144.19,446.19C155.71,453.07 165.67,461.44 176.1,469.93L200.16,489.51C232.42,512.62 255.87,507.37 285.43,483.26L316.3,458.09C322.59,452.96 329.3,449.08 336.46,445.56C349.68,439.06 363.59,438.24 377.43,443.88C387.88,448.14 397.23,454.38 406.01,461.69L433.75,484.78C453.87,501.53 476.95,513.23 502.35,501.51C511,497.52 518.69,492.51 526.17,486.46L561.94,457.54C568.72,452.06 576.12,448.28 584.25,445.28C606.65,437.03 627.89,446.59 645.57,461.11L680.84,490.08C688.93,496.73 697.69,501.65 707.54,505.15C730.73,513.39 751.02,502.16 769.09,487.55C781.74,477.32 793.77,466.97 806.95,457.36C814.41,451.92 822.63,447.95 831.46,445.42C856.95,438.12 879.03,454.71 897.74,470.42C908.2,479.21 918.12,488.03 929.29,495.89C938.71,502.52 948.48,506.73 960.09,509.24C948.06,510.52 928.95,497.92 919.34,490.02L888.56,464.72C881.36,458.8 873.75,454.32 865.33,450.47C852.17,444.46 838.03,444.5 824.67,450.17C814.28,454.58 805.19,460.72 796.46,467.98L770.79,489.33C752.2,504.8 730.69,517.45 706.46,508.6C696.32,504.89 687.32,499.68 678.94,492.89L644.54,465C636.98,458.87 628.93,454.15 619.87,450.8C606.49,445.85 592.51,446.48 579.65,452.74C569.77,457.55 560.98,463.59 552.54,470.69L527.8,491.53C519.4,498.61 510.51,504.46 500.5,508.81C488.52,514.02 476.21,514.64 463.85,510.3C454.19,506.91 445.63,501.79 437.58,495.32L404.62,468.83C384.87,452.96 362.48,442.42 338.15,453.98C329.33,458.17 321.35,463.18 313.79,469.47L282.14,495.82C274.83,501.9 267.25,506.82 258.54,510.63C236.62,520.24 214.18,512.7 196.22,498.19L160.45,469.28C152.61,462.95 144.24,458.14 134.9,454.49C123.27,449.93 111.07,450.04 99.46,454.75C91.65,457.92 84.38,461.76 77.75,467.15L43.41,495.07L27.56,506.63C18.99,511.96 9.82,515.68 -0.01,516.89L-0.01,502.07L0.02,502.08Z" style="fill:rgb(5,14,18);fill-rule:nonzero;"/>
        <path d="M0.02,282.76L0.02,267.84C13.1,266.83 28.15,259.15 38.6,250.71L72.79,223.09C91.89,207.66 114.92,198 138.23,209.27C147.25,213.63 155.43,218.7 163.15,225.17L193.38,250.52C201.03,256.93 209.14,262.06 218.22,265.96C242.22,276.27 263.63,266.84 282.83,251.21L312.42,227.12C320.61,220.46 329.06,214.93 338.65,210.68C352.35,204.61 366.9,204.89 380.5,211.32C390.62,216.1 399.69,222.24 408.33,229.48L434.94,251.77C442.66,258.24 450.75,263.53 459.9,267.59C473.2,273.49 487.39,273.94 500.77,268.13C509.96,264.14 518.28,259.07 526.08,252.66L556.87,227.38C563.77,221.71 571.03,217.33 579.06,213.52C602.55,202.39 625.46,210.52 644.62,226.39L676.35,252.68C684.54,259.46 693.16,265.01 702.78,269.4C725.55,279.79 747.78,270.86 766.3,255.86L801.78,227.12C808.98,221.29 816.68,216.98 825.21,213.53C837.01,208.75 849.47,208.65 861.49,212.99C870.57,216.26 878.73,220.92 886.21,227.12L913.47,249.7L931.72,263.6C940.16,270.02 949.6,272.83 960.13,275.43C946.29,275.99 928.64,263.58 917.94,254.85L888.88,231.13C871.01,216.54 849.98,206.52 827.27,215.2C817.39,218.98 808.54,224.21 800.35,230.96L767.75,257.83C759.49,264.64 750.91,270.26 740.91,274.17C718.6,282.9 696.34,273.08 678.54,258.63L644.42,230.94C637.54,225.36 630.32,221.01 622.22,217.63C609.29,212.24 595.44,212.04 582.57,217.57C572.76,221.78 564.09,227.21 555.89,234.06L526.38,258.74C518.47,265.35 510.09,270.72 500.73,274.8C477.39,284.97 457.05,276.64 438.06,261.61L398.23,230.08C392.18,225.29 385.56,221.97 378.55,219.02C365.83,213.66 352.29,213.84 339.63,219.37C329.73,223.7 320.97,229.51 312.64,236.47L282.86,261.37C275.21,267.76 267.16,272.98 258.08,276.84C232.35,287.77 210.97,276.41 190.73,259.94L161.13,235.86C153.75,229.85 145.82,225.21 137.21,221.42C124.71,215.92 111.57,215.71 99,221.02C90.94,224.42 83.4,228.47 76.52,234.1L41.76,262.55C29.79,272.34 15.16,281.35 0.02,282.76Z" style="fill:rgb(5,14,18);fill-rule:nonzero;"/>
        <path d="M0.02,67.2L0.02,52.32C9.16,51.53 17.46,48 25.65,43.39C46.9,31.42 62.98,12.68 83.5,0L150.7,0C171.94,14.48 190.15,35.43 212.8,47.64C227.68,55.66 244.15,56.62 259.56,49.85C267.19,46.5 274.12,42.6 280.62,37.31L304.69,17.74C312.47,11.41 320.01,5.36 328.21,0L347.88,0C336.23,3.44 326,9.65 316.47,17.58L281.95,46.29C274.41,52.56 266.39,57.32 257.44,61.2C232.73,71.9 212,60.73 192.42,45.11L158.52,18.07C147.41,9.21 134.79,2.45 120.4,1.17C101.38,-0.52 82,12.93 67.66,24.95L44.16,44.63C31.8,54.97 15.79,65.65 0.02,67.2Z" style="fill:rgb(5,14,18);fill-rule:nonzero;"/>
        <path d="M203.92,539.99L173.46,515.29C162.88,506.84 152.65,498.49 140.65,492.56C124.8,484.73 107.98,484.96 92.5,493.4C68.3,506.59 53.48,524.6 31.69,540L0,540L0.01,538.08C16.4,536.21 32.13,526.03 45.11,515.5L71.84,493.82C79.4,487.69 87.39,482.78 96.19,478.85C109.62,472.84 123.98,472.91 137.28,478.98C144.69,482.36 151.41,486.01 157.77,491.18L196.37,522.54C206.45,530.73 217.58,536.73 229.83,540.01L203.91,540.01L203.92,539.99Z" style="fill:rgb(5,14,18);fill-rule:nonzero;"/>
        <path d="M179.45,540C167.81,528.6 155,518.11 140.17,510.79C129.92,505.73 118.79,503.48 107.7,506.2C94.41,509.46 82.75,516.27 72.46,525.09L55.29,540L36.95,540L70.81,512.96C90.66,497.19 112.7,485.95 137.27,497.31C146.86,501.74 155.4,507.33 163.64,514.1L194.8,540.01L179.45,540.01L179.45,540Z" style="fill:rgb(5,14,18);fill-rule:nonzero;"/>
        <path d="M450.07,540C441.82,534.71 434.36,528.56 426.56,522.25L400.57,501.23C393.39,495.42 385.48,491.22 376.88,488.02C363.27,482.95 349.13,483.94 336.29,490.46C327.76,494.79 320.15,499.72 312.82,505.93L290.76,524.63L271.11,540.01L246.15,540.01C258,537.23 269.17,532.12 278.92,524.28L317.71,493.08C325.51,486.81 334.06,482.19 343.45,479.04C369.12,470.45 390.3,484.88 409.78,500.67L441.54,526.41L454.29,534.73L464.95,540L450.07,540Z" style="fill:rgb(5,14,18);fill-rule:nonzero;"/>
        <path d="M159.81,0L174.67,0L191.95,15.32C199.6,21.97 207.85,27.33 217.04,31.44C251.82,47.01 278.37,21.57 303.21,0L315.24,0L280.38,28.93C272.7,35.3 264.52,40.09 255.23,43.66C231.34,52.82 210.7,41.59 191.93,26.36L159.81,0Z" style="fill:rgb(5,14,18);fill-rule:nonzero;"/>
        <path d="M371.38,0L390.09,0L408.61,13.67L438.74,38.21C444.42,42.84 450.63,46.64 456.91,50.02C472.34,58.31 488.83,58.01 504.31,50.32C529.09,38 546.09,17.44 569.36,2.7C570.86,1.75 572.77,1.68 573.38,0L585.86,0C575.79,3.82 566.52,9.26 558.03,16.37L525.42,43.67C518.13,49.77 510.34,54.52 501.84,58.47C479.16,69.04 458.13,61.5 439.44,46.63L400.74,15.83C391.76,8.69 381.95,3.48 371.39,0.01L371.38,0Z" style="fill:rgb(5,14,18);fill-rule:nonzero;"/>
        <path d="M424.53,540L406.67,524.4C399.07,517.84 390.89,512.71 381.91,508.37C366.81,501.07 350.15,501.4 335.35,509.31C326.73,513.91 318.81,519.13 311.4,525.61L295.19,540.01L282.62,540.01L312.12,515.31C319.99,508.8 328.11,503.51 337.36,499.25C351.78,492.6 367.83,492.98 381.99,500.09C390.65,504.44 398.47,509.29 405.94,515.56L434.7,540.01L424.53,540.01L424.53,540Z" style="fill:rgb(5,14,18);fill-rule:nonzero;"/>
        <path d="M157.36,539.99C128.62,519.4 107.18,518.65 78.71,539.99L61.06,539.99C83.11,520.67 109.31,502 139.08,516.65C151.36,522.7 162.35,530.79 172.25,539.99L157.36,539.99Z" style="fill:rgb(5,14,18);fill-rule:nonzero;"/>
        <path d="M180.91,0L194.85,0C225.98,24.89 251.61,25.29 282.61,0L294.61,0L280.42,12.19C272.64,18.74 264.04,23.61 254.49,27.01C225.19,37.44 201.91,18.11 180.91,0Z" style="fill:rgb(5,14,18);fill-rule:nonzero;"/>
        <path d="M694.3,539.99C675.13,528.3 659.83,512.14 641.47,498.78C612.13,477.44 590.16,478.56 561.25,500.02L538.36,518.89C529.32,526.35 520.66,533.72 511.01,539.99L496.14,539.99C507.7,535.51 518.26,529.06 528.03,521.02L555.41,498.49C563.12,492.15 571.23,487.18 580.29,483.05C593.54,477.01 607.98,476.72 621.47,482.35C630.32,486.05 638.17,490.91 645.59,497.07L677.03,523.18C685.26,530.01 693.95,535.63 703.43,539.99L694.3,539.99Z" style="fill:rgb(5,14,18);fill-rule:nonzero;"/>
        <path d="M404.5,0L414.61,0C426.69,11.39 439.37,22.19 453.84,30.67C467.89,38.91 483.54,40.52 498.79,34.73C509.18,30.79 518.47,25.13 527.04,17.92L547.95,0L555.6,0L526.84,24.43C518.68,31.31 509.95,36.71 500.19,41C487.01,46.81 472.37,46.65 459.27,40.7C450.74,36.83 443.2,32.06 435.95,26.11L404.5,0Z" style="fill:rgb(5,14,18);fill-rule:nonzero;"/>
        <path d="M0.01,48.96L0.01,34.01C23.49,31.22 41.26,14.95 58.55,0L75.32,0L43.22,26.87C30.51,37.41 16.2,46.8 0.01,48.96Z" style="fill:rgb(5,14,18);fill-rule:nonzero;"/>
        <path d="M402.46,540C372.07,517.08 348.22,515.55 318.13,540L306.13,540C314.78,531.93 324.3,524.92 334.96,519.49C364.97,504.19 389.85,520.63 412.64,540L402.45,540L402.46,540Z" style="fill:rgb(5,14,18);fill-rule:nonzero;"/>
        <path d="M619.45,0L630.01,0C643.08,8.55 654.95,18.48 666.92,28.82C676.82,37.36 686.69,45.21 698.2,51.25C723.87,64.71 747.32,55.41 768.43,38.15L797.71,14.21C804.52,8.64 811.62,4.19 819.04,0.01L824.32,0.01C817.61,3.25 811.01,6.54 805.01,11.45L766.48,42.88C747.88,58.05 725.68,67.5 702.6,57.43C696.69,54.85 691.1,52.14 685.95,48.09L640.66,12.42C634.02,7.19 626.88,3.37 619.44,0.01L619.45,0Z" style="fill:rgb(5,14,18);fill-rule:nonzero;"/>
        <path d="M669.72,540L646.55,520.58C639.43,514.67 631.97,509.95 623.59,506.12C598.94,494.85 574.79,505.8 555.43,522.53L535.51,540L527.43,540L560.78,512.59C567.7,506.98 575.24,502.89 583.51,499.79C594.54,495.66 606.28,494.97 617.43,498.88C628.12,502.63 637.65,508.24 646.28,515.59L674.6,540L669.7,540L669.72,540Z" style="fill:rgb(5,14,18);fill-rule:nonzero;"/>
        <path d="M425.64,0L435.21,0C469.17,28.23 493.46,27.39 527.81,0L535.45,0C512.18,20.1 486.27,38.04 455.41,21.48C444.48,15.61 434.77,8.21 425.65,0L425.64,0Z" style="fill:rgb(5,14,18);fill-rule:nonzero;"/>
        <path d="M36.95,0L55.15,0C39.83,13.57 21.63,29.18 0.5,31.87L0.5,16.64C14.22,15.12 26.56,8.67 36.95,0Z" style="fill:rgb(5,14,18);fill-rule:nonzero;"/>
        <path d="M203.44,0L228.88,0C235.47,1.69 242.44,1.69 249.03,0L272.53,0C248.58,16.02 227.35,16.48 203.44,0Z" style="fill:rgb(5,14,18);fill-rule:nonzero;"/>
        <path d="M648.76,0L654.48,0L677.03,19.19C684.96,25.91 693.5,31.24 702.98,35.42C729.25,46.99 752,34.09 772.26,17.02L792.17,0L795.98,0L766.28,24.94C757.92,31.92 748.93,37.39 738.61,40.9C715.6,48.72 694.49,37.66 676.54,22.98L648.76,0Z" style="fill:rgb(5,14,18);fill-rule:nonzero;"/>
        <path d="M646.79,539.99C614.45,513.86 590.52,514.1 558.07,539.99L550.87,539.99C559.42,531.96 568.85,525.26 579.68,520.4C608.06,507.67 631.39,521.1 652.45,539.99L646.79,539.99Z" style="fill:rgb(5,14,18);fill-rule:nonzero;"/>
        <path d="M938.99,539.99C929.42,533.99 920.59,527.18 911.69,519.83L888.82,500.95C880.73,494.27 872.05,489 862.35,485.21C850.68,480.66 838.79,480.74 827.1,485.23C817.47,488.93 808.77,493.99 800.8,500.62L775.4,521.75C767.31,528.48 759.34,534.83 750.45,540L742.77,540C751.4,536.22 759.47,531.48 766.97,525.32L796.5,501.12C804.17,494.84 812.19,489.7 820.99,485.35C847.76,472.1 871.06,484.3 892.25,501.84L920.32,525.07C927.45,530.97 934.83,535.97 942.86,540L939.01,540L938.99,539.99Z" style="fill:rgb(5,14,18);fill-rule:nonzero;"/>
        <path d="M86.38,540C108.07,526.63 127.23,526.11 148.73,540L86.38,540Z" style="fill:rgb(5,14,18);fill-rule:nonzero;"/>
        <path d="M669.87,0L675.15,0C695.43,17.18 720.06,30.15 746.16,17.29C755.66,12.61 764.25,6.87 772.04,0L775.84,0C767.31,7.45 758.25,14.33 748.18,19.7C718.09,35.72 692.96,19.51 669.88,0.01L669.87,0Z" style="fill:rgb(5,14,18);fill-rule:nonzero;"/>
        <path d="M449.1,0L463.98,0C474.75,4.31 486.79,4.28 497.57,0L511.96,0C490.39,13.45 470.54,13.92 449.1,0Z" style="fill:rgb(5,14,18);fill-rule:nonzero;"/>
        <path d="M913.56,539.99L892.18,521.58C883.72,514.4 874.72,508.48 864.63,504.09C829.59,488.87 800.64,518.23 775.98,539.99L771.55,539.99L796.96,518.82C806.95,510.52 817.71,503.7 830.19,499.84C852.8,492.84 875.35,505.1 892.46,519.88L915.39,539.99L913.56,539.99Z" style="fill:rgb(5,14,18);fill-rule:nonzero;"/>
        <path d="M332.53,539.99C351.07,529.08 369.1,529.24 387.67,539.99L332.53,539.99Z" style="fill:rgb(5,14,18);fill-rule:nonzero;"/>
        <path d="M0.49,0L33.09,0C23.49,7.02 12.64,12.69 0.51,14.28L0.49,0Z" style="fill:rgb(5,14,18);fill-rule:nonzero;"/>
        <path d="M891.01,539.99C856.86,511.77 832.73,512.26 798.43,539.99L795.07,539.99C803.06,532.85 811.96,526.86 821.79,522.15C849.38,508.93 872.24,522.23 893.39,539.99L891.01,539.99Z" style="fill:rgb(5,14,18);fill-rule:nonzero;"/>
        <path d="M613.21,540C607.13,538.35 600.57,538.32 594.5,540L578.67,540C593.92,531.63 611.86,531.71 627.13,540L613.21,540Z" style="fill:rgb(5,14,18);fill-rule:nonzero;"/>
        <path d="M694.78,0L702.94,0C716.22,6.2 731.53,6.62 744.68,0L751.4,0C732.26,11.53 713.98,11.18 694.78,0Z" style="fill:rgb(5,14,18);fill-rule:nonzero;"/>
        <path d="M866.07,0L869.43,0C876.04,3.73 882.25,7.83 888.35,12.8L925.02,42.72C935.35,51.15 946.98,56.15 960.12,59.39C945.44,60 926.56,46.06 915.23,36.71L889.46,15.46C882.07,9.37 874.25,4.46 866.07,-0.01L866.07,0Z" style="fill:rgb(5,14,18);fill-rule:nonzero;"/>
        <path d="M893.44,0.01L895.82,0.01L916.23,17.97C922.6,23.49 929.19,28.09 936.4,32.38C943.8,36.79 951.36,39.14 960.08,41.34C946.63,42.19 927.49,28.97 916.98,20.11L893.44,0.01Z" style="fill:rgb(5,14,18);fill-rule:nonzero;"/>
        <path d="M860.79,540C851.25,536.34 840.61,536.4 831.04,540L824.32,540C837.73,533.53 853.11,533.58 866.54,540L860.78,540L860.79,540Z" style="fill:rgb(5,14,18);fill-rule:nonzero;"/>
        <path d="M914.05,0.01L915.97,0.01L931.15,11.68C939.98,18.42 949.72,21.48 960.71,24.24C952.86,24.97 945.69,21.1 939,17.7C929.71,12.98 921.83,6.49 914.05,0.01Z" style="fill:rgb(5,14,18);fill-rule:nonzero;"/>
        <path d="M939,0L941.4,0C947.1,3.71 953.89,4.03 960.66,6.72C952.72,7.31 945.61,3.07 939,0Z" style="fill:rgb(5,14,18);fill-rule:nonzero;"/>
    </g>
</svg>
